<svg xmlns="http://www.w3.org/2000/svg" viewBox="0 0 960 420" font-family="-apple-system, sans-serif">
  <rect width="960" height="420" fill="#FAF8F4"/>
  <text x="84" y="26" font-size="16" font-weight="500" fill="#1A1A1A" font-family="Georgia, serif">Section 06 proof: iyengar, gross value versus net invested cost</text>
  <text x="84" y="44" font-size="11" fill="#4A4A4A" font-family="ui-monospace, Menlo, monospace">c-2026-05-15-iyengar-01; covered 100.1% (floor 70%); window 2017-03..2026-03; method real_anchored_v1</text>
  <line x1="84" y1="364.0" x2="924" y2="364.0" stroke="#E8E4DC" stroke-width="1"/><text x="74" y="367.5" text-anchor="end" font-family="ui-monospace, Menlo, monospace" font-size="10.5" fill="#8A8A8A">0.00</text>
  <line x1="84" y1="289.0" x2="924" y2="289.0" stroke="#E8E4DC" stroke-width="1"/><text x="74" y="292.5" text-anchor="end" font-family="ui-monospace, Menlo, monospace" font-size="10.5" fill="#8A8A8A">0.93</text>
  <line x1="84" y1="214.0" x2="924" y2="214.0" stroke="#E8E4DC" stroke-width="1"/><text x="74" y="217.5" text-anchor="end" font-family="ui-monospace, Menlo, monospace" font-size="10.5" fill="#8A8A8A">1.87</text>
  <line x1="84" y1="139.0" x2="924" y2="139.0" stroke="#E8E4DC" stroke-width="1"/><text x="74" y="142.5" text-anchor="end" font-family="ui-monospace, Menlo, monospace" font-size="10.5" fill="#8A8A8A">2.80</text>
  <line x1="84" y1="64.0" x2="924" y2="64.0" stroke="#E8E4DC" stroke-width="1"/><text x="74" y="67.5" text-anchor="end" font-family="ui-monospace, Menlo, monospace" font-size="10.5" fill="#8A8A8A">3.74</text>
  <text x="84.0" y="382" text-anchor="middle" font-family="ui-monospace, Menlo, monospace" font-size="10" fill="#8A8A8A">2017</text>
  <text x="161.8" y="382" text-anchor="middle" font-family="ui-monospace, Menlo, monospace" font-size="10" fill="#8A8A8A">2018</text>
  <text x="255.1" y="382" text-anchor="middle" font-family="ui-monospace, Menlo, monospace" font-size="10" fill="#8A8A8A">2019</text>
  <text x="348.4" y="382" text-anchor="middle" font-family="ui-monospace, Menlo, monospace" font-size="10" fill="#8A8A8A">2020</text>
  <text x="441.8" y="382" text-anchor="middle" font-family="ui-monospace, Menlo, monospace" font-size="10" fill="#8A8A8A">2021</text>
  <text x="535.1" y="382" text-anchor="middle" font-family="ui-monospace, Menlo, monospace" font-size="10" fill="#8A8A8A">2022</text>
  <text x="628.4" y="382" text-anchor="middle" font-family="ui-monospace, Menlo, monospace" font-size="10" fill="#8A8A8A">2023</text>
  <text x="721.8" y="382" text-anchor="middle" font-family="ui-monospace, Menlo, monospace" font-size="10" fill="#8A8A8A">2024</text>
  <text x="815.1" y="382" text-anchor="middle" font-family="ui-monospace, Menlo, monospace" font-size="10" fill="#8A8A8A">2025</text>
  <text x="908.4" y="382" text-anchor="middle" font-family="ui-monospace, Menlo, monospace" font-size="10" fill="#8A8A8A">2026</text>
  <polyline points="84.0,362.8 91.8,362.8 99.6,362.7 107.3,362.6 115.1,362.5 122.9,362.4 130.7,362.3 138.4,362.2 146.2,362.1 154.0,362.0 161.8,361.9 169.6,361.8 177.3,361.7 185.1,361.6 192.9,361.3 200.7,361.1 208.4,360.8 216.2,360.5 224.0,360.2 231.8,359.9 239.6,359.6 247.3,359.3 255.1,359.0 262.9,358.8 270.7,358.4 278.4,358.1 286.2,357.8 294.0,357.5 301.8,357.2 309.6,356.9 317.3,356.6 325.1,356.3 332.9,354.1 340.7,353.8 348.4,353.4 356.2,333.5 364.0,333.2 371.8,332.9 379.6,332.6 387.3,332.3 395.1,332.0 402.9,331.4 410.7,331.1 418.4,330.8 426.2,330.4 434.0,330.0 441.8,329.7 449.6,329.3 457.3,328.9 465.1,328.5 472.9,328.1 480.7,327.7 488.4,327.3 496.2,326.8 504.0,326.3 511.8,325.8 519.6,325.3 527.3,324.8 535.1,324.3 542.9,323.9 550.7,323.4 558.4,318.8 566.2,316.3 574.0,311.9 581.8,306.8 589.6,302.1 597.3,299.5 605.1,299.0 612.9,298.5 620.7,298.0 628.4,297.6 636.2,297.1 644.0,296.6 651.8,296.2 659.6,295.7 667.3,295.1 675.1,294.6 682.9,294.1 690.7,293.6 698.4,293.1 706.2,292.6 714.0,292.0 721.8,291.4 729.6,290.8 737.3,290.2 745.1,289.6 752.9,288.9 760.7,216.1 768.4,215.4 776.2,214.7 784.0,141.8 791.8,141.1 799.6,140.5 807.3,139.8 815.1,139.2 822.9,138.6 830.7,137.9 838.4,137.3 846.2,136.6 854.0,135.9 861.8,135.2 869.6,134.5 877.3,133.8 885.1,133.1 892.9,132.4 900.7,131.7 908.4,131.0 916.2,130.3 924.0,129.7" fill="none" stroke="#8A8A8A" stroke-width="1.6" stroke-dasharray="5 4"/>
  <polyline points="84.0,362.8 91.8,362.7 99.6,362.6 107.3,362.5 115.1,362.3 122.9,362.2 130.7,362.1 138.4,362.0 146.2,361.9 154.0,361.7 161.8,361.6 169.6,361.5 177.3,361.5 185.1,361.2 192.9,360.9 200.7,360.6 208.4,360.1 216.2,359.7 224.0,359.8 231.8,359.7 239.6,359.1 247.3,358.8 255.1,358.6 262.9,358.3 270.7,357.6 278.4,357.2 286.2,356.7 294.0,356.4 301.8,356.4 309.6,356.1 317.3,355.3 325.1,354.8 332.9,352.6 340.7,352.1 348.4,351.8 356.2,332.3 364.0,334.6 371.8,333.4 379.6,333.3 387.3,331.9 395.1,330.7 402.9,329.7 410.7,329.3 418.4,328.2 426.2,325.9 434.0,324.0 441.8,324.4 449.6,323.1 457.3,322.2 465.1,321.8 472.9,319.9 480.7,319.1 488.4,318.4 496.2,315.6 504.0,314.5 511.8,313.8 519.6,314.3 527.3,313.3 535.1,313.2 542.9,313.4 550.7,312.0 558.4,308.4 566.2,307.0 574.0,304.1 581.8,295.8 589.6,289.5 597.3,288.2 605.1,285.8 612.9,283.9 620.7,284.8 628.4,285.5 636.2,285.6 644.0,284.9 651.8,282.4 659.6,280.3 667.3,277.8 675.1,275.6 682.9,275.9 690.7,274.2 698.4,274.8 706.2,271.0 714.0,266.0 721.8,265.0 729.6,262.8 737.3,260.2 745.1,258.8 752.9,258.1 760.7,186.4 768.4,182.2 776.2,179.5 784.0,109.4 791.8,113.2 799.6,111.4 807.3,110.9 815.1,110.4 822.9,113.2 830.7,106.9 838.4,101.9 846.2,98.6 854.0,94.0 861.8,94.5 869.6,93.7 877.3,91.4 885.1,86.2 892.9,82.9 900.7,81.6 908.4,82.8 916.2,81.0 924.0,90.4" fill="none" stroke="#3F5B47" stroke-width="2.2"/>
  <circle cx="924.0" cy="90.4" r="3.5" fill="#3F5B47"/>
  <text x="84" y="406" font-size="10.5" fill="#4A4A4A" font-family="ui-monospace, Menlo, monospace">gross (solid) Rs 3.41 Cr at 2026-03; net invested (dashed) Rs 2.92 Cr; values in Rs Cr on the real-anchored basis</text>
</svg>
