<svg xmlns="http://www.w3.org/2000/svg" viewBox="0 0 960 420" font-family="-apple-system, sans-serif">
  <rect width="960" height="420" fill="#FAF8F4"/>
  <text x="84" y="26" font-size="16" font-weight="500" fill="#1A1A1A" font-family="Georgia, serif">Section 06 proof: malhotra, gross value versus net invested cost</text>
  <text x="84" y="44" font-size="11" fill="#4A4A4A" font-family="ui-monospace, Menlo, monospace">c-2026-05-15-malhotra-01; covered 91.5% (floor 70%); window 2017-09..2026-03; method real_anchored_v1</text>
  <line x1="84" y1="364.0" x2="924" y2="364.0" stroke="#E8E4DC" stroke-width="1"/><text x="74" y="367.5" text-anchor="end" font-family="ui-monospace, Menlo, monospace" font-size="10.5" fill="#8A8A8A">0.00</text>
  <line x1="84" y1="289.0" x2="924" y2="289.0" stroke="#E8E4DC" stroke-width="1"/><text x="74" y="292.5" text-anchor="end" font-family="ui-monospace, Menlo, monospace" font-size="10.5" fill="#8A8A8A">3.04</text>
  <line x1="84" y1="214.0" x2="924" y2="214.0" stroke="#E8E4DC" stroke-width="1"/><text x="74" y="217.5" text-anchor="end" font-family="ui-monospace, Menlo, monospace" font-size="10.5" fill="#8A8A8A">6.08</text>
  <line x1="84" y1="139.0" x2="924" y2="139.0" stroke="#E8E4DC" stroke-width="1"/><text x="74" y="142.5" text-anchor="end" font-family="ui-monospace, Menlo, monospace" font-size="10.5" fill="#8A8A8A">9.12</text>
  <line x1="84" y1="64.0" x2="924" y2="64.0" stroke="#E8E4DC" stroke-width="1"/><text x="74" y="67.5" text-anchor="end" font-family="ui-monospace, Menlo, monospace" font-size="10.5" fill="#8A8A8A">12.16</text>
  <text x="84.0" y="382" text-anchor="middle" font-family="ui-monospace, Menlo, monospace" font-size="10" fill="#8A8A8A">2017</text>
  <text x="116.9" y="382" text-anchor="middle" font-family="ui-monospace, Menlo, monospace" font-size="10" fill="#8A8A8A">2018</text>
  <text x="215.8" y="382" text-anchor="middle" font-family="ui-monospace, Menlo, monospace" font-size="10" fill="#8A8A8A">2019</text>
  <text x="314.6" y="382" text-anchor="middle" font-family="ui-monospace, Menlo, monospace" font-size="10" fill="#8A8A8A">2020</text>
  <text x="413.4" y="382" text-anchor="middle" font-family="ui-monospace, Menlo, monospace" font-size="10" fill="#8A8A8A">2021</text>
  <text x="512.2" y="382" text-anchor="middle" font-family="ui-monospace, Menlo, monospace" font-size="10" fill="#8A8A8A">2022</text>
  <text x="611.1" y="382" text-anchor="middle" font-family="ui-monospace, Menlo, monospace" font-size="10" fill="#8A8A8A">2023</text>
  <text x="709.9" y="382" text-anchor="middle" font-family="ui-monospace, Menlo, monospace" font-size="10" fill="#8A8A8A">2024</text>
  <text x="808.7" y="382" text-anchor="middle" font-family="ui-monospace, Menlo, monospace" font-size="10" fill="#8A8A8A">2025</text>
  <text x="907.5" y="382" text-anchor="middle" font-family="ui-monospace, Menlo, monospace" font-size="10" fill="#8A8A8A">2026</text>
  <polyline points="84.0,314.6 92.2,314.6 100.5,314.6 108.7,314.6 116.9,314.6 125.2,314.6 133.4,286.7 141.6,286.7 149.9,286.5 158.1,286.2 166.4,286.0 174.6,285.7 182.8,285.4 191.1,285.2 199.3,285.0 207.5,284.7 215.8,284.5 224.0,284.2 232.2,282.1 240.5,281.8 248.7,281.4 256.9,280.9 265.2,280.5 273.4,280.1 281.6,279.7 289.9,279.3 298.1,278.8 306.4,278.3 314.6,277.9 322.8,277.4 331.1,277.1 339.3,276.7 347.5,276.3 355.8,275.9 364.0,271.6 372.2,270.7 380.5,270.3 388.7,269.8 396.9,269.3 405.2,268.7 413.4,268.2 421.6,267.6 429.9,264.6 438.1,264.0 446.4,263.5 454.6,262.9 462.8,262.2 471.1,261.5 479.3,260.8 487.5,260.1 495.8,259.5 504.0,258.8 512.2,258.1 520.5,257.4 528.7,254.9 536.9,253.9 545.2,253.0 553.4,252.2 561.6,251.2 569.9,250.3 578.1,249.4 586.4,248.4 594.6,241.0 602.8,240.0 611.1,239.1 619.3,238.2 627.5,232.6 635.8,231.7 644.0,230.7 652.2,229.6 660.5,228.6 668.7,227.5 676.9,226.4 685.2,225.3 693.4,224.2 701.6,222.9 709.9,221.6 718.1,220.4 726.4,216.5 734.6,178.2 742.8,176.9 751.1,175.5 759.3,174.0 767.5,172.5 775.8,171.0 784.0,169.6 792.2,168.1 800.5,166.6 808.7,165.1 816.9,163.7 825.2,162.3 833.4,160.8 841.6,159.3 849.9,157.7 858.1,156.2 866.4,154.7 874.6,153.2 882.8,151.5 891.1,150.0 899.3,148.5 907.5,147.0 915.8,145.4 924.0,144.1" fill="none" stroke="#8A8A8A" stroke-width="1.6" stroke-dasharray="5 4"/>
  <polyline points="84.0,335.1 92.2,334.9 100.5,334.7 108.7,334.5 116.9,334.4 125.2,334.2 133.4,317.3 141.6,316.9 149.9,316.4 158.1,315.9 166.4,315.2 174.6,314.5 182.8,314.3 191.1,314.0 199.3,313.3 207.5,312.7 215.8,312.2 224.0,311.7 232.2,308.9 240.5,308.3 248.7,307.5 256.9,306.7 265.2,306.4 273.4,305.7 281.6,304.6 289.9,303.5 298.1,302.6 306.4,301.8 314.6,301.0 322.8,300.8 331.1,302.9 339.3,300.9 347.5,300.3 355.8,298.7 364.0,293.1 372.2,291.1 380.5,290.3 388.7,289.2 396.9,286.2 405.2,283.6 413.4,283.2 421.6,280.8 429.9,277.0 438.1,275.7 446.4,272.9 454.6,271.0 462.8,268.9 471.1,265.2 479.3,263.1 487.5,261.7 495.8,261.8 504.0,259.8 512.2,259.8 520.5,260.6 528.7,256.2 536.9,256.2 545.2,256.5 553.4,257.7 561.6,252.4 569.9,249.5 578.1,249.7 586.4,246.5 594.6,237.5 602.8,238.2 611.1,237.9 619.3,237.2 627.5,231.1 635.8,227.0 644.0,223.1 652.2,218.9 660.5,215.1 668.7,214.1 676.9,211.2 685.2,211.5 693.4,204.7 701.6,197.7 709.9,195.2 718.1,191.4 726.4,185.8 734.6,147.5 742.8,144.4 751.1,134.1 759.3,127.0 767.5,123.0 775.8,117.3 784.0,123.0 792.2,119.5 800.5,117.8 808.7,119.9 816.9,126.7 825.2,117.1 833.4,111.5 841.6,104.9 849.9,97.0 858.1,97.0 866.4,96.8 874.6,93.4 882.8,86.2 891.1,82.6 899.3,81.1 907.5,83.8 915.8,81.0 924.0,96.2" fill="none" stroke="#3F5B47" stroke-width="2.2"/>
  <circle cx="924.0" cy="96.2" r="3.5" fill="#3F5B47"/>
  <text x="84" y="406" font-size="10.5" fill="#4A4A4A" font-family="ui-monospace, Menlo, monospace">gross (solid) Rs 10.85 Cr at 2026-03; net invested (dashed) Rs 8.91 Cr; values in Rs Cr on the real-anchored basis</text>
</svg>
