<svg xmlns="http://www.w3.org/2000/svg" viewBox="0 0 960 420" font-family="-apple-system, sans-serif">
  <rect width="960" height="420" fill="#FAF8F4"/>
  <text x="84" y="26" font-size="16" font-weight="500" fill="#1A1A1A" font-family="Georgia, serif">Section 06 proof: surana, gross value versus net invested cost</text>
  <text x="84" y="44" font-size="11" fill="#4A4A4A" font-family="ui-monospace, Menlo, monospace">c-2026-05-15-surana-01; covered 81.2% (floor 70%); window 2019-05..2026-03; method real_anchored_v1</text>
  <line x1="84" y1="364.0" x2="924" y2="364.0" stroke="#E8E4DC" stroke-width="1"/><text x="74" y="367.5" text-anchor="end" font-family="ui-monospace, Menlo, monospace" font-size="10.5" fill="#8A8A8A">0.00</text>
  <line x1="84" y1="289.0" x2="924" y2="289.0" stroke="#E8E4DC" stroke-width="1"/><text x="74" y="292.5" text-anchor="end" font-family="ui-monospace, Menlo, monospace" font-size="10.5" fill="#8A8A8A">8.37</text>
  <line x1="84" y1="214.0" x2="924" y2="214.0" stroke="#E8E4DC" stroke-width="1"/><text x="74" y="217.5" text-anchor="end" font-family="ui-monospace, Menlo, monospace" font-size="10.5" fill="#8A8A8A">16.73</text>
  <line x1="84" y1="139.0" x2="924" y2="139.0" stroke="#E8E4DC" stroke-width="1"/><text x="74" y="142.5" text-anchor="end" font-family="ui-monospace, Menlo, monospace" font-size="10.5" fill="#8A8A8A">25.10</text>
  <line x1="84" y1="64.0" x2="924" y2="64.0" stroke="#E8E4DC" stroke-width="1"/><text x="74" y="67.5" text-anchor="end" font-family="ui-monospace, Menlo, monospace" font-size="10.5" fill="#8A8A8A">33.46</text>
  <text x="84.0" y="382" text-anchor="middle" font-family="ui-monospace, Menlo, monospace" font-size="10" fill="#8A8A8A">2019</text>
  <text x="166.0" y="382" text-anchor="middle" font-family="ui-monospace, Menlo, monospace" font-size="10" fill="#8A8A8A">2020</text>
  <text x="288.9" y="382" text-anchor="middle" font-family="ui-monospace, Menlo, monospace" font-size="10" fill="#8A8A8A">2021</text>
  <text x="411.8" y="382" text-anchor="middle" font-family="ui-monospace, Menlo, monospace" font-size="10" fill="#8A8A8A">2022</text>
  <text x="534.7" y="382" text-anchor="middle" font-family="ui-monospace, Menlo, monospace" font-size="10" fill="#8A8A8A">2023</text>
  <text x="657.7" y="382" text-anchor="middle" font-family="ui-monospace, Menlo, monospace" font-size="10" fill="#8A8A8A">2024</text>
  <text x="780.6" y="382" text-anchor="middle" font-family="ui-monospace, Menlo, monospace" font-size="10" fill="#8A8A8A">2025</text>
  <text x="903.5" y="382" text-anchor="middle" font-family="ui-monospace, Menlo, monospace" font-size="10" fill="#8A8A8A">2026</text>
  <polyline points="84.0,325.6 94.2,325.5 104.5,325.4 114.7,325.2 125.0,325.1 135.2,325.0 145.5,324.9 155.7,324.8 166.0,324.7 176.2,324.6 186.4,322.5 196.7,322.3 206.9,322.0 217.2,321.7 227.4,321.3 237.7,320.5 247.9,320.1 258.1,319.8 268.4,319.3 278.6,318.9 288.9,318.4 299.1,317.9 309.4,317.4 319.6,316.9 329.9,316.3 340.1,315.8 350.3,315.2 360.6,314.7 370.8,314.1 381.1,313.5 391.3,308.5 401.6,307.8 411.8,307.3 422.0,306.7 432.3,300.3 442.5,274.1 452.8,273.2 463.0,272.3 473.3,271.3 483.5,270.2 493.8,269.2 504.0,268.1 514.2,267.0 524.5,266.0 534.7,265.0 545.0,264.0 555.2,259.8 565.5,258.7 575.7,257.6 586.0,256.5 596.2,250.3 606.4,249.1 616.7,247.9 626.9,246.7 637.2,245.4 647.4,244.0 657.7,242.7 667.9,241.4 678.1,235.8 688.4,234.3 698.6,232.8 708.9,231.2 719.1,229.6 729.4,228.0 739.6,226.4 749.9,224.8 760.1,223.1 770.3,221.5 780.6,219.9 790.8,218.5 801.1,217.0 811.3,215.3 821.6,213.8 831.8,212.1 842.0,210.5 852.3,208.9 862.5,207.2 872.8,205.5 883.0,203.7 893.3,202.0 903.5,200.4 913.8,198.8 924.0,197.3" fill="none" stroke="#8A8A8A" stroke-width="1.6" stroke-dasharray="5 4"/>
  <polyline points="84.0,313.2 94.2,314.6 104.5,317.8 114.7,316.0 125.0,312.2 135.2,309.2 145.5,306.6 155.7,307.2 166.0,309.8 176.2,312.2 186.4,320.1 196.7,310.0 206.9,310.3 217.2,302.8 227.4,294.4 237.7,292.0 247.9,288.8 258.1,290.5 268.4,288.0 278.6,285.1 288.9,288.9 299.1,280.5 309.4,281.9 319.6,282.4 329.9,275.9 340.1,276.0 350.3,277.3 360.6,268.2 370.8,261.3 381.1,260.2 391.3,259.9 401.6,259.6 411.8,259.4 422.0,261.4 432.3,247.5 442.5,232.5 452.8,236.0 463.0,239.5 473.3,234.4 483.5,228.9 493.8,236.3 504.0,228.0 514.2,220.3 524.5,225.1 534.7,228.9 545.0,229.1 555.2,224.2 565.5,217.9 575.7,214.4 586.0,207.4 596.2,193.9 606.4,197.4 616.7,197.7 626.9,200.2 637.2,189.9 647.4,176.5 657.7,170.7 667.9,165.6 678.1,156.4 688.4,152.2 698.6,150.4 708.9,132.2 719.1,129.1 729.4,125.0 739.6,120.1 749.9,132.4 760.1,129.5 770.3,132.2 780.6,133.3 790.8,143.5 801.1,132.0 811.3,120.4 821.6,111.7 831.8,99.1 842.0,103.5 852.3,106.1 862.5,102.1 872.8,88.7 883.0,81.9 893.3,81.0 903.5,93.1 913.8,92.4 924.0,113.0" fill="none" stroke="#3F5B47" stroke-width="2.2"/>
  <circle cx="924.0" cy="113.0" r="3.5" fill="#3F5B47"/>
  <text x="84" y="406" font-size="10.5" fill="#4A4A4A" font-family="ui-monospace, Menlo, monospace">gross (solid) Rs 28.00 Cr at 2026-03; net invested (dashed) Rs 18.59 Cr; values in Rs Cr on the real-anchored basis</text>
</svg>
